{
    "asset" : {
        "generator" : "Khronos glTF Blender I/O v3.4.50",
        "version" : "2.0"
    },
    "extensionsUsed" : [
        "KHR_materials_specular",
        "KHR_materials_ior"
    ],
    "scene" : 0,
    "scenes" : [
        {
            "name" : "Scene",
            "nodes" : [
                30
            ]
        }
    ],
    "nodes" : [
        {
            "name" : "Bip001 Head",
            "rotation" : [
                -1.7899227933160233e-10,
                1.543199878994983e-08,
                -0.03523414209485054,
                0.9993790984153748
            ],
            "scale" : [
                1,
                0.9999999403953552,
                1
            ],
            "translation" : [
                0.11990756541490555,
                1.1173859171265121e-08,
                9.264766731575946e-09
            ]
        },
        {
            "name" : "Bip001 L Finger01",
            "rotation" : [
                2.218369701267875e-07,
                1.2609680197783746e-06,
                0.07636737078428268,
                0.9970798492431641
            ],
            "translation" : [
                0.053376149386167526,
                -3.725290298461914e-09,
                -1.51805579662323e-07
            ]
        },
        {
            "children" : [
                1
            ],
            "name" : "Bip001 L Finger0",
            "rotation" : [
                0.5460872054100037,
                0.468824177980423,
                0.01048235408961773,
                0.6941777467727661
            ],
            "scale" : [
                0.9999999403953552,
                1.0000001192092896,
                1.0000001192092896
            ],
            "translation" : [
                0.01969633437693119,
                0.01262282207608223,
                -0.04886395484209061
            ]
        },
        {
            "name" : "Bip001 L Finger11",
            "rotation" : [
                -2.152117239972995e-08,
                6.462199308998606e-08,
                0.09664778411388397,
                0.9953186511993408
            ],
            "scale" : [
                0.9999999403953552,
                0.9999999403953552,
                0.9999999403953552
            ],
            "translation" : [
                0.040484264492988586,
                5.299225449562073e-07,
                1.862645149230957e-09
            ]
        },
        {
            "children" : [
                3
            ],
            "name" : "Bip001 L Finger1",
            "rotation" : [
                -0.00039758800994604826,
                2.1282943635014817e-05,
                0.05347685515880585,
                0.9985690116882324
            ],
            "scale" : [
                1.0000001192092896,
                1,
                1
            ],
            "translation" : [
                0.10346520692110062,
                1.1757947504520416e-06,
                1.862645149230957e-09
            ]
        },
        {
            "children" : [
                2,
                4
            ],
            "name" : "Bip001 L Hand",
            "rotation" : [
                -0.7365172505378723,
                0.00156676908954978,
                0.012318295426666737,
                0.676304817199707
            ],
            "scale" : [
                0.9999999403953552,
                0.9999999403953552,
                1.0000001192092896
            ],
            "translation" : [
                0.11594324558973312,
                -1.7182901501655579e-07,
                -1.4711986295878887e-06
            ]
        },
        {
            "children" : [
                5
            ],
            "name" : "Bip001 L Forearm",
            "rotation" : [
                -1.7390178186360572e-07,
                -2.2658757643512217e-06,
                -0.020209720358252525,
                0.9997957944869995
            ],
            "scale" : [
                0.9999998807907104,
                1,
                1
            ],
            "translation" : [
                0.14284451305866241,
                -8.742790669202805e-08,
                -9.890645742416382e-07
            ]
        },
        {
            "children" : [
                6
            ],
            "name" : "Bip001 L UpperArm",
            "rotation" : [
                0.03199814260005951,
                0.29684555530548096,
                0.03204813227057457,
                0.953851044178009
            ],
            "scale" : [
                0.9999998807907104,
                0.9999999403953552,
                1
            ],
            "translation" : [
                0.10698451846837997,
                -1.7066486179828644e-07,
                -3.0617229640483856e-07
            ]
        },
        {
            "children" : [
                7
            ],
            "name" : "Bip001 L Clavicle",
            "rotation" : [
                0.671875,
                -0.05724283680319786,
                0.736769437789917,
                0.04978134110569954
            ],
            "scale" : [
                1.0000115633010864,
                1.000000238418579,
                1.000000238418579
            ],
            "translation" : [
                -0.04621346667408943,
                0.013094045221805573,
                0.026540208607912064
            ]
        },
        {
            "name" : "Bip001 R Finger01",
            "rotation" : [
                7.145485625414949e-08,
                -2.1016134610363224e-07,
                0.07636743783950806,
                0.9970798492431641
            ],
            "scale" : [
                1,
                0.9999999403953552,
                1
            ],
            "translation" : [
                0.05337616056203842,
                -1.6763806343078613e-08,
                7.404014468193054e-08
            ]
        },
        {
            "children" : [
                9
            ],
            "name" : "Bip001 R Finger0",
            "rotation" : [
                -0.5460887551307678,
                -0.4688238799571991,
                0.010481263510882854,
                0.6941767930984497
            ],
            "scale" : [
                1,
                1.0000001192092896,
                1.0000001192092896
            ],
            "translation" : [
                0.019696416333317757,
                0.012622709386050701,
                0.0488639697432518
            ]
        },
        {
            "name" : "Bip001 R Finger11",
            "rotation" : [
                -5.1463665329265496e-08,
                -1.906495050718604e-08,
                0.09664766490459442,
                0.9953186511993408
            ],
            "scale" : [
                0.9999999403953552,
                1,
                0.9999999403953552
            ],
            "translation" : [
                0.04048443213105202,
                6.51925802230835e-08,
                9.313225746154785e-09
            ]
        },
        {
            "children" : [
                11
            ],
            "name" : "Bip001 R Finger1",
            "rotation" : [
                0.0003976094303652644,
                -2.1279973225318827e-05,
                0.053476832807064056,
                0.9985690116882324
            ],
            "scale" : [
                1,
                1.0000001192092896,
                1
            ],
            "translation" : [
                0.10346576571464539,
                2.0302832126617432e-07,
                1.4901161193847656e-08
            ]
        },
        {
            "children" : [
                10,
                12
            ],
            "name" : "Bip001 R Hand",
            "rotation" : [
                0.7365174889564514,
                -0.0015666629187762737,
                0.012318305671215057,
                0.6763045191764832
            ],
            "scale" : [
                1,
                1.0000001192092896,
                1.0000001192092896
            ],
            "translation" : [
                0.11594384163618088,
                9.313225746154785e-10,
                1.075095497071743e-07
            ]
        },
        {
            "children" : [
                13
            ],
            "name" : "Bip001 R Forearm",
            "rotation" : [
                3.46406316964476e-08,
                1.7514076944280532e-07,
                -0.020209772512316704,
                0.9997957944869995
            ],
            "scale" : [
                0.9999999403953552,
                1,
                1
            ],
            "translation" : [
                0.14284533262252808,
                -1.6996636986732483e-08,
                1.5326077118515968e-07
            ]
        },
        {
            "children" : [
                14
            ],
            "name" : "Bip001 R UpperArm",
            "rotation" : [
                -0.03199813514947891,
                -0.2968454658985138,
                0.032048337161540985,
                0.953851044178009
            ],
            "scale" : [
                1.0000001192092896,
                1,
                1.0000001192092896
            ],
            "translation" : [
                0.10698558390140533,
                -6.426125764846802e-08,
                3.5390257835388184e-08
            ]
        },
        {
            "children" : [
                15
            ],
            "name" : "Bip001 R Clavicle",
            "rotation" : [
                -0.6718743443489075,
                0.05724077671766281,
                0.7367699146270752,
                0.04978390783071518
            ],
            "scale" : [
                1.0000015497207642,
                0.9999999403953552,
                1
            ],
            "translation" : [
                -0.04621347784996033,
                0.013094186782836914,
                -0.02654014155268669
            ]
        },
        {
            "children" : [
                0,
                8,
                16
            ],
            "name" : "Bip001 Neck",
            "rotation" : [
                -5.062620100915183e-09,
                -1.9821858643354062e-07,
                0.07496661692857742,
                0.9971860647201538
            ],
            "translation" : [
                0.19894281029701233,
                -0.017876893281936646,
                -3.80857052562078e-08
            ]
        },
        {
            "children" : [
                17
            ],
            "name" : "Bip001 Spine1",
            "rotation" : [
                3.6256582180982377e-09,
                1.2659452863772458e-07,
                -0.05062283203005791,
                0.9987178444862366
            ],
            "translation" : [
                0.11140787601470947,
                -0.00010915286839008331,
                9.217643537340336e-09
            ]
        },
        {
            "name" : "Bip001 L Toe0",
            "rotation" : [
                -1.192548637618529e-08,
                -1.954005490745203e-08,
                0.7071067094802856,
                0.7071068286895752
            ],
            "translation" : [
                0.04269967973232269,
                0.08098547160625458,
                0.0014780904166400433
            ]
        },
        {
            "children" : [
                19
            ],
            "name" : "Bip001 L Foot",
            "rotation" : [
                0.005673253443092108,
                -0.03116796538233757,
                0.09654948860406876,
                0.9948238730430603
            ],
            "scale" : [
                0.9999999403953552,
                0.9999999403953552,
                1
            ],
            "translation" : [
                0.1339004933834076,
                1.1175870895385742e-08,
                -1.1699739843606949e-08
            ]
        },
        {
            "children" : [
                20
            ],
            "name" : "Bip001 L Calf",
            "rotation" : [
                -1.1533941801644687e-07,
                6.039882691766252e-07,
                -0.09261217713356018,
                0.9957022666931152
            ],
            "scale" : [
                0.9999999403953552,
                1,
                1
            ],
            "translation" : [
                0.1668514907360077,
                1.8300488591194153e-07,
                -2.207671059295535e-07
            ]
        },
        {
            "children" : [
                21
            ],
            "name" : "Bip001 L Thigh",
            "rotation" : [
                -0.006841602735221386,
                -0.9994746446609497,
                -0.003105929121375084,
                0.031527675688266754
            ],
            "scale" : [
                1,
                0.9999996423721313,
                1
            ],
            "translation" : [
                -0.0487070307135582,
                -0.006435582879930735,
                0.0799400731921196
            ]
        },
        {
            "name" : "Bip001 R Toe0",
            "rotation" : [
                -4.351503690713798e-08,
                1.20494973998575e-08,
                0.7071068286895752,
                0.7071068286895752
            ],
            "translation" : [
                0.04269963875412941,
                0.08098548650741577,
                -0.0014780989149585366
            ]
        },
        {
            "children" : [
                23
            ],
            "name" : "Bip001 R Foot",
            "rotation" : [
                -0.005673261824995279,
                0.03116808831691742,
                0.0965493693947792,
                0.9948239326477051
            ],
            "scale" : [
                0.9999999403953552,
                1,
                1
            ],
            "translation" : [
                0.13390056788921356,
                -3.026798367500305e-08,
                -6.83940015733242e-10
            ]
        },
        {
            "children" : [
                24
            ],
            "name" : "Bip001 R Calf",
            "rotation" : [
                -7.316132411006038e-08,
                7.560654466942651e-07,
                -0.09261217713356018,
                0.9957022666931152
            ],
            "scale" : [
                1,
                0.9999999403953552,
                1
            ],
            "translation" : [
                0.16685162484645844,
                2.0873267203569412e-07,
                -2.429296728223562e-07
            ]
        },
        {
            "children" : [
                25
            ],
            "name" : "Bip001 R Thigh",
            "rotation" : [
                0.006841749884188175,
                0.9994746446609497,
                -0.0031031614635139704,
                0.0315277986228466
            ],
            "scale" : [
                1,
                0.9999997615814209,
                1
            ],
            "translation" : [
                -0.0487070269882679,
                -0.006435127928853035,
                -0.07994013279676437
            ]
        },
        {
            "children" : [
                18,
                22,
                26
            ],
            "name" : "Bip001 Spine",
            "rotation" : [
                -2.0887098344246624e-06,
                -7.177575866990082e-07,
                0.01084793172776699,
                0.9999411702156067
            ],
            "scale" : [
                0.9999998807907104,
                0.9999999403953552,
                1
            ],
            "translation" : [
                0.048555947840213776,
                0.007490531075745821,
                6.273781139043422e-08
            ]
        },
        {
            "children" : [
                27
            ],
            "name" : "Bip001 Pelvis",
            "rotation" : [
                -0.7071073651313782,
                -0.7071062922477722,
                4.4816067656938685e-07,
                5.324550897967129e-07
            ],
            "translation" : [
                -1.0877521106067434e-11,
                -1.83503934270135e-09,
                0
            ]
        },
        {
            "mesh" : 0,
            "name" : "cp_foot_shoes_001",
            "skin" : 0
        },
        {
            "children" : [
                29,
                28
            ],
            "name" : "Bip001",
            "rotation" : [
                0,
                -0.7071068286895752,
                0,
                0.7071067094802856
            ],
            "translation" : [
                0,
                0.34064996242523193,
                0.0419808030128479
            ]
        }
    ],
    "materials" : [
        {
            "doubleSided" : true,
            "extensions" : {
                "KHR_materials_specular" : {
                    "specularColorFactor" : [
                        0,
                        0,
                        0
                    ]
                },
                "KHR_materials_ior" : {
                    "ior" : 1.4500000476837158
                }
            },
            "name" : "Material #260",
            "pbrMetallicRoughness" : {
                "baseColorTexture" : {
                    "index" : 0
                },
                "roughnessFactor" : 0.858578622341156
            }
        },
        {
            "doubleSided" : true,
            "extensions" : {
                "KHR_materials_specular" : {
                    "specularColorFactor" : [
                        0,
                        0,
                        0
                    ]
                },
                "KHR_materials_ior" : {
                    "ior" : 1.4500000476837158
                }
            },
            "name" : "Material #243.004",
            "pbrMetallicRoughness" : {
                "roughnessFactor" : 0.858578622341156
            }
        }
    ],
    "meshes" : [
        {
            "name" : "Mesh.019",
            "primitives" : [
                {
                    "attributes" : {
                        "POSITION" : 0,
                        "TEXCOORD_0" : 1,
                        "NORMAL" : 2,
                        "JOINTS_0" : 3,
                        "WEIGHTS_0" : 4
                    },
                    "indices" : 5,
                    "material" : 0
                },
                {
                    "attributes" : {
                        "POSITION" : 6,
                        "TEXCOORD_0" : 7,
                        "NORMAL" : 8,
                        "JOINTS_0" : 9,
                        "WEIGHTS_0" : 10
                    },
                    "indices" : 11,
                    "material" : 1
                }
            ]
        }
    ],
    "textures" : [
        {
            "sampler" : 0,
            "source" : 0
        }
    ],
    "images" : [
        {
            "mimeType" : "image/png",
            "name" : "cp_foot_shoes_001",
            "uri" : "Textures/cp_foot_shoes_001.png"
        }
    ],
    "skins" : [
        {
            "inverseBindMatrices" : 12,
            "joints" : [
                28,
                27,
                18,
                17,
                0,
                8,
                7,
                6,
                5,
                2,
                1,
                4,
                3,
                16,
                15,
                14,
                13,
                10,
                9,
                12,
                11,
                22,
                21,
                20,
                19,
                26,
                25,
                24,
                23
            ],
            "name" : "Bip001"
        }
    ],
    "accessors" : [
        {
            "bufferView" : 0,
            "componentType" : 5126,
            "count" : 622,
            "max" : [
                0.15751513838768005,
                0.08659663796424866,
                0.15558269619941711
            ],
            "min" : [
                -0.15751513838768005,
                -0.0002100186247844249,
                -0.052176520228385925
            ],
            "type" : "VEC3"
        },
        {
            "bufferView" : 1,
            "componentType" : 5126,
            "count" : 622,
            "type" : "VEC2"
        },
        {
            "bufferView" : 2,
            "componentType" : 5126,
            "count" : 622,
            "type" : "VEC3"
        },
        {
            "bufferView" : 3,
            "componentType" : 5121,
            "count" : 622,
            "type" : "VEC4"
        },
        {
            "bufferView" : 4,
            "componentType" : 5126,
            "count" : 622,
            "type" : "VEC4"
        },
        {
            "bufferView" : 5,
            "componentType" : 5123,
            "count" : 1752,
            "type" : "SCALAR"
        },
        {
            "bufferView" : 6,
            "componentType" : 5126,
            "count" : 18,
            "max" : [
                -0.046124838292598724,
                0.06444651633501053,
                0.06744846701622009
            ],
            "min" : [
                -0.15369348227977753,
                0.020068692043423653,
                -0.04915418475866318
            ],
            "type" : "VEC3"
        },
        {
            "bufferView" : 7,
            "componentType" : 5126,
            "count" : 18,
            "type" : "VEC2"
        },
        {
            "bufferView" : 8,
            "componentType" : 5126,
            "count" : 18,
            "type" : "VEC3"
        },
        {
            "bufferView" : 9,
            "componentType" : 5121,
            "count" : 18,
            "type" : "VEC4"
        },
        {
            "bufferView" : 10,
            "componentType" : 5126,
            "count" : 18,
            "type" : "VEC4"
        },
        {
            "bufferView" : 11,
            "componentType" : 5123,
            "count" : 48,
            "type" : "SCALAR"
        },
        {
            "bufferView" : 12,
            "componentType" : 5126,
            "count" : 29,
            "type" : "MAT4"
        }
    ],
    "bufferViews" : [
        {
            "buffer" : 0,
            "byteLength" : 7464,
            "byteOffset" : 0,
            "target" : 34962
        },
        {
            "buffer" : 0,
            "byteLength" : 4976,
            "byteOffset" : 7464,
            "target" : 34962
        },
        {
            "buffer" : 0,
            "byteLength" : 7464,
            "byteOffset" : 12440,
            "target" : 34962
        },
        {
            "buffer" : 0,
            "byteLength" : 2488,
            "byteOffset" : 19904,
            "target" : 34962
        },
        {
            "buffer" : 0,
            "byteLength" : 9952,
            "byteOffset" : 22392,
            "target" : 34962
        },
        {
            "buffer" : 0,
            "byteLength" : 3504,
            "byteOffset" : 32344,
            "target" : 34963
        },
        {
            "buffer" : 0,
            "byteLength" : 216,
            "byteOffset" : 35848,
            "target" : 34962
        },
        {
            "buffer" : 0,
            "byteLength" : 144,
            "byteOffset" : 36064,
            "target" : 34962
        },
        {
            "buffer" : 0,
            "byteLength" : 216,
            "byteOffset" : 36208,
            "target" : 34962
        },
        {
            "buffer" : 0,
            "byteLength" : 72,
            "byteOffset" : 36424,
            "target" : 34962
        },
        {
            "buffer" : 0,
            "byteLength" : 288,
            "byteOffset" : 36496,
            "target" : 34962
        },
        {
            "buffer" : 0,
            "byteLength" : 96,
            "byteOffset" : 36784,
            "target" : 34963
        },
        {
            "buffer" : 0,
            "byteLength" : 1856,
            "byteOffset" : 36880
        }
    ],
    "samplers" : [
        {
            "magFilter" : 9729,
            "minFilter" : 9987
        }
    ],
    "buffers" : [
        {
            "byteLength" : 38736,
            "uri" : "cp_foot_shoes_001.bin"
        }
    ]
}
