{
    "asset" : {
        "generator" : "Khronos glTF Blender I/O v3.3.32",
        "version" : "2.0"
    },
    "extensionsUsed" : [
        "KHR_materials_specular",
        "KHR_materials_ior"
    ],
    "scene" : 0,
    "scenes" : [
        {
            "name" : "Scene",
            "nodes" : [
                29,
                30
            ]
        }
    ],
    "nodes" : [
        {
            "name" : "Bip001 Head",
            "rotation" : [
                -0.03523419797420502,
                -9.89923876204557e-09,
                1.766432546901342e-07,
                0.9993790984153748
            ],
            "translation" : [
                -7.105427357601002e-15,
                0.11990799754858017,
                -1.8623753650359731e-09
            ]
        },
        {
            "name" : "Bip001 L Finger01",
            "rotation" : [
                0.07636719197034836,
                -4.343333159795293e-08,
                4.866402036896034e-07,
                0.9970797896385193
            ],
            "scale" : [
                1,
                0.9999998807907104,
                0.9999999403953552
            ],
            "translation" : [
                -7.543712854385376e-08,
                0.05337603762745857,
                -1.0617077350616455e-07
            ]
        },
        {
            "children" : [
                1
            ],
            "name" : "Bip001 L Finger0",
            "rotation" : [
                0.010481541976332664,
                0.5460885167121887,
                0.4688241481781006,
                0.6941767930984497
            ],
            "translation" : [
                -0.04886419698596001,
                0.019695943221449852,
                0.012623199261724949
            ]
        },
        {
            "name" : "Bip001 L Finger11",
            "rotation" : [
                0.09664805233478546,
                -2.4328279835117428e-08,
                1.0292734664574255e-08,
                0.9953187108039856
            ],
            "scale" : [
                1,
                0.9999998211860657,
                0.9999999403953552
            ],
            "translation" : [
                -2.60770320892334e-08,
                0.040484026074409485,
                1.1385418474674225e-07
            ]
        },
        {
            "children" : [
                3
            ],
            "name" : "Bip001 L Finger1",
            "rotation" : [
                0.05347714573144913,
                -0.0003973912389483303,
                2.1271172954584472e-05,
                0.9985690116882324
            ],
            "scale" : [
                1,
                0.9999999403953552,
                1
            ],
            "translation" : [
                -4.0978193283081055e-08,
                0.10346575826406479,
                5.767215043306351e-07
            ]
        },
        {
            "children" : [
                2,
                4
            ],
            "name" : "Bip001 L Hand",
            "rotation" : [
                0.012317718006670475,
                -0.7365179061889648,
                0.001566862571053207,
                0.6763041019439697
            ],
            "translation" : [
                -6.332993507385254e-07,
                0.11594384163618088,
                -7.171183824539185e-08
            ]
        },
        {
            "children" : [
                5
            ],
            "name" : "Bip001 L Forearm",
            "rotation" : [
                -0.020209887996315956,
                -9.88567947501906e-08,
                -9.466353390052973e-07,
                0.9997957944869995
            ],
            "scale" : [
                1,
                0.9999999403953552,
                1
            ],
            "translation" : [
                -4.766625352203846e-07,
                0.14284482598304749,
                -9.173527359962463e-08
            ]
        },
        {
            "children" : [
                6
            ],
            "name" : "Bip001 L UpperArm",
            "rotation" : [
                0.03204789012670517,
                0.0319984033703804,
                0.29684513807296753,
                0.9538511633872986
            ],
            "scale" : [
                0.9999999403953552,
                1,
                1
            ],
            "translation" : [
                -2.600718289613724e-07,
                0.1069854348897934,
                -4.6566128730773926e-08
            ]
        },
        {
            "children" : [
                7
            ],
            "name" : "Bip001 L Clavicle",
            "rotation" : [
                0.7367699146270752,
                0.6718743443489075,
                -0.05724281817674637,
                0.049781683832407
            ],
            "scale" : [
                1,
                1.0000001192092896,
                1
            ],
            "translation" : [
                0.026540037244558334,
                -0.046214256435632706,
                0.013094037771224976
            ]
        },
        {
            "name" : "Bip001 R Finger01",
            "rotation" : [
                0.07636712491512299,
                -1.8587599015518208e-07,
                -9.928953659255058e-07,
                0.9970797896385193
            ],
            "scale" : [
                1,
                1.0000001192092896,
                1
            ],
            "translation" : [
                1.755543053150177e-07,
                0.05337611213326454,
                -8.195638656616211e-08
            ]
        },
        {
            "children" : [
                9
            ],
            "name" : "Bip001 R Finger0",
            "rotation" : [
                0.010481960140168667,
                -0.5460875630378723,
                -0.4688240587711334,
                0.6941775679588318
            ],
            "scale" : [
                1.0000001192092896,
                1.0000001192092896,
                1
            ],
            "translation" : [
                0.04886414110660553,
                0.019695818424224854,
                0.012623235583305359
            ]
        },
        {
            "name" : "Bip001 R Finger11",
            "rotation" : [
                0.09664809703826904,
                -3.742812282325758e-09,
                9.848274373780441e-08,
                0.9953187108039856
            ],
            "scale" : [
                1,
                1.0000001192092896,
                1
            ],
            "translation" : [
                7.450580596923828e-09,
                0.04048384353518486,
                4.777684807777405e-07
            ]
        },
        {
            "children" : [
                11
            ],
            "name" : "Bip001 R Finger1",
            "rotation" : [
                0.05347713083028793,
                0.00039751711301505566,
                -2.1346831999835558e-05,
                0.9985690116882324
            ],
            "scale" : [
                1,
                1,
                1.0000001192092896
            ],
            "translation" : [
                3.725290298461914e-09,
                0.10346551239490509,
                9.641516953706741e-07
            ]
        },
        {
            "children" : [
                10,
                12
            ],
            "name" : "Bip001 R Hand",
            "rotation" : [
                0.012317858636379242,
                0.7365177273750305,
                -0.0015668146079406142,
                0.676304280757904
            ],
            "translation" : [
                1.3628741726279259e-06,
                0.11594341695308685,
                -1.564621925354004e-07
            ]
        },
        {
            "children" : [
                13
            ],
            "name" : "Bip001 R Forearm",
            "rotation" : [
                -0.020209839567542076,
                1.3600086390397337e-07,
                1.9641329345176928e-06,
                0.9997957944869995
            ],
            "translation" : [
                7.863272912800312e-07,
                0.14284434914588928,
                -8.987262845039368e-08
            ]
        },
        {
            "children" : [
                14
            ],
            "name" : "Bip001 R UpperArm",
            "rotation" : [
                0.032048121094703674,
                -0.03199950233101845,
                -0.2968451678752899,
                0.9538511037826538
            ],
            "translation" : [
                3.8766302168369293e-07,
                0.10698502510786057,
                -1.3620592653751373e-07
            ]
        },
        {
            "children" : [
                15
            ],
            "name" : "Bip001 R Clavicle",
            "rotation" : [
                0.7367697358131409,
                -0.6718745231628418,
                0.057241540402173996,
                0.0497840978205204
            ],
            "scale" : [
                1.0000001192092896,
                0.9999998211860657,
                1
            ],
            "translation" : [
                -0.026539986953139305,
                -0.04621424525976181,
                0.013094175606966019
            ]
        },
        {
            "children" : [
                0,
                8,
                16
            ],
            "name" : "Bip001 Neck",
            "rotation" : [
                0.07496663182973862,
                4.0124767508586956e-08,
                -2.6615634851623327e-07,
                0.9971860647201538
            ],
            "translation" : [
                -2.2645608055427147e-08,
                0.19894330203533173,
                -0.01787716895341873
            ]
        },
        {
            "children" : [
                17
            ],
            "name" : "Bip001 Spine1",
            "rotation" : [
                -0.050622839480638504,
                -7.131851731401184e-08,
                1.4594529318401328e-07,
                0.9987178444862366
            ],
            "translation" : [
                1.1190884663392353e-08,
                0.11140795797109604,
                -0.00010916870087385178
            ]
        },
        {
            "name" : "Bip001 L Toe0",
            "rotation" : [
                9.379986636304238e-07,
                -3.0958551633375464e-07,
                0.7071067094802856,
                0.7071068286895752
            ],
            "translation" : [
                0.042700111865997314,
                0.08098508417606354,
                0.0014779508346691728
            ]
        },
        {
            "children" : [
                19
            ],
            "name" : "Bip001 L Foot",
            "rotation" : [
                0.5641070008277893,
                0.4363899230957031,
                0.5272654891014099,
                0.4618855118751526
            ],
            "scale" : [
                0.9999999403953552,
                1.0000001192092896,
                0.9999999403953552
            ],
            "translation" : [
                -1.280568540096283e-08,
                0.13390016555786133,
                -6.752088665962219e-09
            ]
        },
        {
            "children" : [
                20
            ],
            "name" : "Bip001 L Calf",
            "rotation" : [
                -0.09261086583137512,
                1.2334826493543005e-08,
                -3.151573935156193e-08,
                0.9957023859024048
            ],
            "scale" : [
                1,
                1,
                1.0000001192092896
            ],
            "translation" : [
                -1.1641532182693481e-09,
                0.1668521761894226,
                -5.238689482212067e-10
            ]
        },
        {
            "children" : [
                21
            ],
            "name" : "Bip001 L Thigh",
            "rotation" : [
                -0.0031059985049068928,
                -0.006840643938630819,
                -0.9994746446609497,
                0.03152798116207123
            ],
            "scale" : [
                1.0000040531158447,
                1.0000001192092896,
                1.0000001192092896
            ],
            "translation" : [
                0.07994000613689423,
                -0.04870699718594551,
                -0.006435372866690159
            ]
        },
        {
            "name" : "Bip001 R Toe0",
            "rotation" : [
                -4.08289110964688e-07,
                7.499157845813897e-07,
                0.7071066498756409,
                0.70710688829422
            ],
            "scale" : [
                0.9999999403953552,
                1,
                1
            ],
            "translation" : [
                0.042700059711933136,
                0.08098507672548294,
                -0.0014780218480154872
            ]
        },
        {
            "children" : [
                23
            ],
            "name" : "Bip001 R Foot",
            "rotation" : [
                0.5272654891014099,
                0.4618854820728302,
                0.5641070604324341,
                0.4363899230957031
            ],
            "scale" : [
                0.9999998211860657,
                0.9999998807907104,
                0.9999998211860657
            ],
            "translation" : [
                -1.0368239600211382e-08,
                0.13390019536018372,
                1.0244548320770264e-08
            ]
        },
        {
            "children" : [
                24
            ],
            "name" : "Bip001 R Calf",
            "rotation" : [
                -0.09261086583137512,
                2.7884894393537252e-08,
                -1.6968699867447867e-07,
                0.9957023859024048
            ],
            "translation" : [
                3.65689629688859e-08,
                0.1668521612882614,
                -1.8510036170482635e-08
            ]
        },
        {
            "children" : [
                25
            ],
            "name" : "Bip001 R Thigh",
            "rotation" : [
                -0.003103381721302867,
                0.006840723101049662,
                0.9994746446609497,
                0.03152801841497421
            ],
            "scale" : [
                1.0000042915344238,
                1,
                1.0000001192092896
            ],
            "translation" : [
                -0.07994003593921661,
                -0.04870694875717163,
                -0.006434912793338299
            ]
        },
        {
            "children" : [
                18,
                22,
                26
            ],
            "name" : "Bip001 Spine",
            "rotation" : [
                0.010847960598766804,
                -2.0853308342339005e-06,
                7.764903102724929e-07,
                0.9999411702156067
            ],
            "translation" : [
                -8.503927517722332e-08,
                0.04855594038963318,
                0.007490307558327913
            ]
        },
        {
            "children" : [
                27
            ],
            "name" : "Bip001 Pelvis",
            "rotation" : [
                -4.3200526533837547e-07,
                0.7071073651313782,
                -4.320048105910246e-07,
                0.7071062922477722
            ],
            "scale" : [
                1,
                0.9999999403953552,
                1
            ],
            "translation" : [
                2.0116567611694336e-07,
                5.960464477539063e-08,
                -8.128411070856649e-15
            ]
        },
        {
            "children" : [
                28
            ],
            "name" : "Bip001",
            "rotation" : [
                0,
                -0.7071068286895752,
                0,
                0.7071067094802856
            ],
            "translation" : [
                0,
                0.34064996242523193,
                0.0419808030128479
            ]
        },
        {
            "mesh" : 0,
            "name" : "cp_hair_001"
        }
    ],
    "materials" : [
        {
            "doubleSided" : true,
            "extensions" : {
                "KHR_materials_specular" : {
                    "specularColorFactor" : [
                        0,
                        0,
                        0
                    ]
                },
                "KHR_materials_ior" : {
                    "ior" : 1.4500000476837158
                }
            },
            "name" : "cp_hair_001",
            "pbrMetallicRoughness" : {
                "baseColorTexture" : {
                    "index" : 0
                },
                "roughnessFactor" : 0.858578622341156
            }
        }
    ],
    "meshes" : [
        {
            "name" : "Mesh",
            "primitives" : [
                {
                    "attributes" : {
                        "POSITION" : 0,
                        "NORMAL" : 1,
                        "TEXCOORD_0" : 2
                    },
                    "indices" : 3,
                    "material" : 0
                }
            ]
        }
    ],
    "textures" : [
        {
            "sampler" : 0,
            "source" : 0
        }
    ],
    "images" : [
        {
            "mimeType" : "image/png",
            "name" : "cp_hair_001",
            "uri" : "Textures/cp_hair_001.png"
        }
    ],
    "skins" : [
        {
            "inverseBindMatrices" : 4,
            "joints" : [
                28,
                27,
                18,
                17,
                0,
                8,
                7,
                6,
                5,
                2,
                1,
                4,
                3,
                16,
                15,
                14,
                13,
                10,
                9,
                12,
                11,
                22,
                21,
                20,
                19,
                26,
                25,
                24,
                23
            ],
            "name" : "Bip001"
        }
    ],
    "accessors" : [
        {
            "bufferView" : 0,
            "componentType" : 5126,
            "count" : 320,
            "max" : [
                0.4224078059196472,
                1.598312258720398,
                0.4384469985961914
            ],
            "min" : [
                -0.422407865524292,
                0.8516285419464111,
                -0.4172777235507965
            ],
            "type" : "VEC3"
        },
        {
            "bufferView" : 1,
            "componentType" : 5126,
            "count" : 320,
            "type" : "VEC3"
        },
        {
            "bufferView" : 2,
            "componentType" : 5126,
            "count" : 320,
            "type" : "VEC2"
        },
        {
            "bufferView" : 3,
            "componentType" : 5123,
            "count" : 1470,
            "type" : "SCALAR"
        },
        {
            "bufferView" : 4,
            "componentType" : 5126,
            "count" : 29,
            "type" : "MAT4"
        }
    ],
    "bufferViews" : [
        {
            "buffer" : 0,
            "byteLength" : 3840,
            "byteOffset" : 0,
            "target" : 34962
        },
        {
            "buffer" : 0,
            "byteLength" : 3840,
            "byteOffset" : 3840,
            "target" : 34962
        },
        {
            "buffer" : 0,
            "byteLength" : 2560,
            "byteOffset" : 7680,
            "target" : 34962
        },
        {
            "buffer" : 0,
            "byteLength" : 2940,
            "byteOffset" : 10240,
            "target" : 34963
        },
        {
            "buffer" : 0,
            "byteLength" : 1856,
            "byteOffset" : 13180
        }
    ],
    "samplers" : [
        {
            "magFilter" : 9729,
            "minFilter" : 9987
        }
    ],
    "buffers" : [
        {
            "byteLength" : 15036,
            "uri" : "cp_hair_001.bin"
        }
    ]
}
