{
    "asset" : {
        "generator" : "Khronos glTF Blender I/O v3.4.50",
        "version" : "2.0"
    },
    "extensionsUsed" : [
        "KHR_materials_specular",
        "KHR_materials_ior"
    ],
    "scene" : 0,
    "scenes" : [
        {
            "name" : "Scene",
            "nodes" : [
                30
            ]
        }
    ],
    "nodes" : [
        {
            "name" : "Bip001 Head",
            "rotation" : [
                -5.769750011097585e-09,
                7.43678967296546e-08,
                -0.03523405268788338,
                0.9993790984153748
            ],
            "translation" : [
                0.11990755051374435,
                -3.725295627532432e-09,
                -1.683222983217547e-08
            ]
        },
        {
            "name" : "Bip001 L Finger01",
            "rotation" : [
                -2.3351262257165217e-08,
                -8.565241955693637e-07,
                0.07636717706918716,
                0.9970798492431641
            ],
            "scale" : [
                0.9999999403953552,
                1,
                1.0000001192092896
            ],
            "translation" : [
                0.053376179188489914,
                -2.2351741790771484e-08,
                1.3597309589385986e-07
            ]
        },
        {
            "children" : [
                1
            ],
            "name" : "Bip001 L Finger0",
            "rotation" : [
                0.5460900068283081,
                0.46882349252700806,
                0.010480242781341076,
                0.6941760778427124
            ],
            "scale" : [
                1,
                0.9999999403953552,
                1
            ],
            "translation" : [
                0.01969659887254238,
                0.012622600421309471,
                -0.04886393994092941
            ]
        },
        {
            "name" : "Bip001 L Finger11",
            "rotation" : [
                -3.1813897294341587e-08,
                3.4504047619066114e-08,
                0.09664709866046906,
                0.9953187108039856
            ],
            "scale" : [
                0.9999998807907104,
                1,
                0.9999999403953552
            ],
            "translation" : [
                0.040484629571437836,
                -3.1618401408195496e-07,
                5.587935447692871e-09
            ]
        },
        {
            "children" : [
                3
            ],
            "name" : "Bip001 L Finger1",
            "rotation" : [
                -0.00039763745735399425,
                2.1324100089259446e-05,
                0.0534769743680954,
                0.9985690116882324
            ],
            "scale" : [
                0.9999999403953552,
                1,
                1
            ],
            "translation" : [
                0.10346629470586777,
                -7.485505193471909e-07,
                3.166496753692627e-08
            ]
        },
        {
            "children" : [
                2,
                4
            ],
            "name" : "Bip001 L Hand",
            "rotation" : [
                -0.7365176677703857,
                0.001566644525155425,
                0.012318280525505543,
                0.6763043403625488
            ],
            "scale" : [
                0.9999999403953552,
                0.9999999403953552,
                1
            ],
            "translation" : [
                0.11594446003437042,
                1.1175870895385742e-07,
                8.711358532309532e-07
            ]
        },
        {
            "children" : [
                5
            ],
            "name" : "Bip001 L Forearm",
            "rotation" : [
                9.78088365855001e-08,
                1.5754601463413564e-06,
                -0.020210038870573044,
                0.9997957944869995
            ],
            "scale" : [
                0.9999999403953552,
                1,
                1
            ],
            "translation" : [
                0.1428460329771042,
                7.82310962677002e-08,
                5.279434844851494e-07
            ]
        },
        {
            "children" : [
                6
            ],
            "name" : "Bip001 L UpperArm",
            "rotation" : [
                0.031998030841350555,
                0.296845406293869,
                0.032048601657152176,
                0.953851044178009
            ],
            "scale" : [
                0.9999998807907104,
                1,
                0.9999999403953552
            ],
            "translation" : [
                0.10698655247688293,
                9.66247171163559e-08,
                1.7345882952213287e-07
            ]
        },
        {
            "children" : [
                7
            ],
            "name" : "Bip001 L Clavicle",
            "rotation" : [
                0.6718741655349731,
                -0.057242799550294876,
                0.7367700338363647,
                0.04978267103433609
            ],
            "scale" : [
                0.9999926090240479,
                0.9999999403953552,
                0.9999998807907104
            ],
            "translation" : [
                -0.04621350020170212,
                0.013094043359160423,
                0.02654021605849266
            ]
        },
        {
            "name" : "Bip001 R Finger01",
            "rotation" : [
                -1.1628928575646569e-07,
                1.5225022309550695e-07,
                0.07636719942092896,
                0.9970798492431641
            ],
            "scale" : [
                0.9999999403953552,
                0.9999999403953552,
                0.9999999403953552
            ],
            "translation" : [
                0.05337614566087723,
                4.0978193283081055e-08,
                -4.6566128730773926e-08
            ]
        },
        {
            "children" : [
                9
            ],
            "name" : "Bip001 R Finger0",
            "rotation" : [
                -0.5460890531539917,
                -0.4688238501548767,
                0.010481201112270355,
                0.6941766142845154
            ],
            "scale" : [
                1,
                1.000000238418579,
                1.0000001192092896
            ],
            "translation" : [
                0.01969647780060768,
                0.012622696347534657,
                0.0488639771938324
            ]
        },
        {
            "name" : "Bip001 R Finger11",
            "rotation" : [
                2.058547110550535e-08,
                9.976935189115466e-08,
                0.09664741158485413,
                0.9953187704086304
            ],
            "scale" : [
                1,
                0.9999998807907104,
                0.9999999403953552
            ],
            "translation" : [
                0.04048443213105202,
                -3.958120942115784e-08,
                0
            ]
        },
        {
            "children" : [
                11
            ],
            "name" : "Bip001 R Finger1",
            "rotation" : [
                0.00039752645534463227,
                -2.1426692910608836e-05,
                0.05347684025764465,
                0.9985690712928772
            ],
            "scale" : [
                0.9999999403953552,
                1,
                1
            ],
            "translation" : [
                0.10346584767103195,
                9.778887033462524e-09,
                3.5390257835388184e-08
            ]
        },
        {
            "children" : [
                10,
                12
            ],
            "name" : "Bip001 R Hand",
            "rotation" : [
                0.7365175485610962,
                -0.001566680846735835,
                0.012318475171923637,
                0.6763044595718384
            ],
            "scale" : [
                1.0000001192092896,
                1.0000001192092896,
                1.000000238418579
            ],
            "translation" : [
                0.11594393104314804,
                2.3748725652694702e-08,
                3.073364496231079e-08
            ]
        },
        {
            "children" : [
                13
            ],
            "name" : "Bip001 R Forearm",
            "rotation" : [
                1.7465865420618343e-09,
                1.264974258674556e-07,
                -0.02020990662276745,
                0.9997957944869995
            ],
            "scale" : [
                1,
                1.0000001192092896,
                1
            ],
            "translation" : [
                0.14284548163414001,
                -2.8870999813079834e-08,
                7.497146725654602e-08
            ]
        },
        {
            "children" : [
                14
            ],
            "name" : "Bip001 R UpperArm",
            "rotation" : [
                -0.03199809789657593,
                -0.2968457043170929,
                0.03204842656850815,
                0.9538509845733643
            ],
            "translation" : [
                0.10698572546243668,
                -2.3515895009040833e-08,
                -4.1676685214042664e-08
            ]
        },
        {
            "children" : [
                15
            ],
            "name" : "Bip001 R Clavicle",
            "rotation" : [
                -0.6718742847442627,
                0.05724075064063072,
                0.73676997423172,
                0.04978395625948906
            ],
            "scale" : [
                1.000000238418579,
                1,
                1.0000001192092896
            ],
            "translation" : [
                -0.046213507652282715,
                0.01309419609606266,
                -0.026540134102106094
            ]
        },
        {
            "children" : [
                0,
                8,
                16
            ],
            "name" : "Bip001 Neck",
            "rotation" : [
                4.265608755105177e-09,
                -2.9117086342012044e-07,
                0.07496672868728638,
                0.9971860647201538
            ],
            "translation" : [
                0.19894282519817352,
                -0.01787687838077545,
                -4.4295475731814804e-08
            ]
        },
        {
            "children" : [
                17
            ],
            "name" : "Bip001 Spine1",
            "rotation" : [
                1.8666237444620037e-09,
                1.3013372779369092e-07,
                -0.050622861832380295,
                0.9987178444862366
            ],
            "translation" : [
                0.11140786856412888,
                -0.00010915473103523254,
                4.950461374164661e-09
            ]
        },
        {
            "name" : "Bip001 L Toe0",
            "rotation" : [
                2.3805116100561463e-08,
                -8.521849892417777e-09,
                0.7071068286895752,
                0.7071068286895752
            ],
            "translation" : [
                0.04269963130354881,
                0.08098545670509338,
                0.0014780984492972493
            ]
        },
        {
            "children" : [
                19
            ],
            "name" : "Bip001 L Foot",
            "rotation" : [
                0.005673252046108246,
                -0.031167980283498764,
                0.0965493693947792,
                0.9948239326477051
            ],
            "scale" : [
                0.9999999403953552,
                1,
                1
            ],
            "translation" : [
                0.1339004784822464,
                9.89530235528946e-09,
                2.4374458007514477e-09
            ]
        },
        {
            "children" : [
                20
            ],
            "name" : "Bip001 L Calf",
            "rotation" : [
                1.6938468405669482e-08,
                -3.900761669228814e-08,
                -0.09261282533407211,
                0.9957022070884705
            ],
            "scale" : [
                1,
                0.9999999403953552,
                1
            ],
            "translation" : [
                0.16685159504413605,
                3.3178366720676422e-09,
                -9.167706593871117e-10
            ]
        },
        {
            "children" : [
                21
            ],
            "name" : "Bip001 L Thigh",
            "rotation" : [
                -0.006841644644737244,
                -0.9994746446609497,
                -0.0031059288885444403,
                0.031527671962976456
            ],
            "scale" : [
                1.0000001192092896,
                0.9999999403953552,
                1
            ],
            "translation" : [
                -0.04870704188942909,
                -0.006435569375753403,
                0.0799400806427002
            ]
        },
        {
            "name" : "Bip001 R Toe0",
            "rotation" : [
                -7.892884568150293e-09,
                -2.3572662044557546e-08,
                0.7071068286895752,
                0.7071068286895752
            ],
            "translation" : [
                0.04269963875412941,
                0.080985426902771,
                -0.001478106714785099
            ]
        },
        {
            "children" : [
                23
            ],
            "name" : "Bip001 R Foot",
            "rotation" : [
                -0.005673310719430447,
                0.03116808645427227,
                0.09654942899942398,
                0.9948239326477051
            ],
            "scale" : [
                0.9999999403953552,
                0.9999999403953552,
                1
            ],
            "translation" : [
                0.133900448679924,
                -4.6566128730773926e-09,
                1.7491402104496956e-08
            ]
        },
        {
            "children" : [
                24
            ],
            "name" : "Bip001 R Calf",
            "rotation" : [
                -1.680693628713925e-08,
                8.071165780165757e-08,
                -0.09261287748813629,
                0.9957022070884705
            ],
            "scale" : [
                0.9999999403953552,
                0.9999998807907104,
                0.9999999403953552
            ],
            "translation" : [
                0.16685155034065247,
                4.807952791452408e-08,
                -1.2980308383703232e-08
            ]
        },
        {
            "children" : [
                25
            ],
            "name" : "Bip001 R Thigh",
            "rotation" : [
                0.006841741502285004,
                0.9994746446609497,
                -0.003103162394836545,
                0.0315278023481369
            ],
            "scale" : [
                1,
                1.0000001192092896,
                1
            ],
            "translation" : [
                -0.048707034438848495,
                -0.00643512886017561,
                -0.07994012534618378
            ]
        },
        {
            "children" : [
                18,
                22,
                26
            ],
            "name" : "Bip001 Spine",
            "rotation" : [
                -2.0721001874335343e-06,
                7.749768542453239e-07,
                0.010847948491573334,
                0.9999411702156067
            ],
            "scale" : [
                0.9999999403953552,
                1.0000001192092896,
                1
            ],
            "translation" : [
                0.04855594038963318,
                0.007490534335374832,
                -8.409266882836164e-08
            ]
        },
        {
            "children" : [
                27
            ],
            "name" : "Bip001 Pelvis",
            "rotation" : [
                0.7071068286895752,
                0.7071068286895752,
                -1.0424337233416736e-06,
                3.090930889015908e-08
            ],
            "scale" : [
                1,
                0.9999999403953552,
                1
            ],
            "translation" : [
                -1.0877521106067434e-11,
                -1.83503934270135e-09,
                -9.753573137976938e-17
            ]
        },
        {
            "mesh" : 0,
            "name" : "cp_p_02_longs_001",
            "skin" : 0
        },
        {
            "children" : [
                29,
                28
            ],
            "name" : "Bip001",
            "rotation" : [
                0,
                -0.7071068286895752,
                0,
                0.7071067094802856
            ],
            "translation" : [
                0,
                0.34064996242523193,
                0.0419808030128479
            ]
        }
    ],
    "materials" : [
        {
            "doubleSided" : true,
            "extensions" : {
                "KHR_materials_specular" : {
                    "specularColorFactor" : [
                        0,
                        0,
                        0
                    ]
                },
                "KHR_materials_ior" : {
                    "ior" : 1.4500000476837158
                }
            },
            "name" : "Material #261",
            "pbrMetallicRoughness" : {
                "baseColorTexture" : {
                    "index" : 0
                },
                "roughnessFactor" : 0.858578622341156
            }
        },
        {
            "doubleSided" : true,
            "extensions" : {
                "KHR_materials_specular" : {
                    "specularColorFactor" : [
                        0,
                        0,
                        0
                    ]
                },
                "KHR_materials_ior" : {
                    "ior" : 1.4500000476837158
                }
            },
            "name" : "Material #243",
            "pbrMetallicRoughness" : {
                "roughnessFactor" : 0.858578622341156
            }
        }
    ],
    "meshes" : [
        {
            "name" : "Mesh",
            "primitives" : [
                {
                    "attributes" : {
                        "POSITION" : 0,
                        "TEXCOORD_0" : 1,
                        "NORMAL" : 2,
                        "JOINTS_0" : 3,
                        "WEIGHTS_0" : 4
                    },
                    "indices" : 5,
                    "material" : 0
                },
                {
                    "attributes" : {
                        "POSITION" : 6,
                        "TEXCOORD_0" : 7,
                        "NORMAL" : 8,
                        "JOINTS_0" : 9,
                        "WEIGHTS_0" : 10
                    },
                    "indices" : 11,
                    "material" : 1
                }
            ]
        }
    ],
    "textures" : [
        {
            "sampler" : 0,
            "source" : 0
        }
    ],
    "images" : [
        {
            "mimeType" : "image/png",
            "name" : "cp_pants_long_001_001",
            "uri" : "Textures/cp_pants_long_001_001.png"
        }
    ],
    "skins" : [
        {
            "inverseBindMatrices" : 12,
            "joints" : [
                28,
                27,
                18,
                17,
                0,
                8,
                7,
                6,
                5,
                2,
                1,
                4,
                3,
                16,
                15,
                14,
                13,
                10,
                9,
                12,
                11,
                22,
                21,
                20,
                19,
                26,
                25,
                24,
                23
            ],
            "name" : "Bip001"
        }
    ],
    "accessors" : [
        {
            "bufferView" : 0,
            "componentType" : 5126,
            "count" : 238,
            "max" : [
                0.16988436877727509,
                0.39102068543434143,
                0.15454533696174622
            ],
            "min" : [
                -0.16988436877727509,
                0.05826298147439957,
                -0.06764937192201614
            ],
            "type" : "VEC3"
        },
        {
            "bufferView" : 1,
            "componentType" : 5126,
            "count" : 238,
            "type" : "VEC2"
        },
        {
            "bufferView" : 2,
            "componentType" : 5126,
            "count" : 238,
            "type" : "VEC3"
        },
        {
            "bufferView" : 3,
            "componentType" : 5121,
            "count" : 238,
            "type" : "VEC4"
        },
        {
            "bufferView" : 4,
            "componentType" : 5126,
            "count" : 238,
            "type" : "VEC4"
        },
        {
            "bufferView" : 5,
            "componentType" : 5123,
            "count" : 858,
            "type" : "SCALAR"
        },
        {
            "bufferView" : 6,
            "componentType" : 5126,
            "count" : 36,
            "max" : [
                0.15328124165534973,
                0.12834052741527557,
                0.08297838270664215
            ],
            "min" : [
                -0.15328124165534973,
                0.054654560983181,
                -0.04615971818566322
            ],
            "type" : "VEC3"
        },
        {
            "bufferView" : 7,
            "componentType" : 5126,
            "count" : 36,
            "type" : "VEC2"
        },
        {
            "bufferView" : 8,
            "componentType" : 5126,
            "count" : 36,
            "type" : "VEC3"
        },
        {
            "bufferView" : 9,
            "componentType" : 5121,
            "count" : 36,
            "type" : "VEC4"
        },
        {
            "bufferView" : 10,
            "componentType" : 5126,
            "count" : 36,
            "type" : "VEC4"
        },
        {
            "bufferView" : 11,
            "componentType" : 5123,
            "count" : 96,
            "type" : "SCALAR"
        },
        {
            "bufferView" : 12,
            "componentType" : 5126,
            "count" : 29,
            "type" : "MAT4"
        }
    ],
    "bufferViews" : [
        {
            "buffer" : 0,
            "byteLength" : 2856,
            "byteOffset" : 0,
            "target" : 34962
        },
        {
            "buffer" : 0,
            "byteLength" : 1904,
            "byteOffset" : 2856,
            "target" : 34962
        },
        {
            "buffer" : 0,
            "byteLength" : 2856,
            "byteOffset" : 4760,
            "target" : 34962
        },
        {
            "buffer" : 0,
            "byteLength" : 952,
            "byteOffset" : 7616,
            "target" : 34962
        },
        {
            "buffer" : 0,
            "byteLength" : 3808,
            "byteOffset" : 8568,
            "target" : 34962
        },
        {
            "buffer" : 0,
            "byteLength" : 1716,
            "byteOffset" : 12376,
            "target" : 34963
        },
        {
            "buffer" : 0,
            "byteLength" : 432,
            "byteOffset" : 14092,
            "target" : 34962
        },
        {
            "buffer" : 0,
            "byteLength" : 288,
            "byteOffset" : 14524,
            "target" : 34962
        },
        {
            "buffer" : 0,
            "byteLength" : 432,
            "byteOffset" : 14812,
            "target" : 34962
        },
        {
            "buffer" : 0,
            "byteLength" : 144,
            "byteOffset" : 15244,
            "target" : 34962
        },
        {
            "buffer" : 0,
            "byteLength" : 576,
            "byteOffset" : 15388,
            "target" : 34962
        },
        {
            "buffer" : 0,
            "byteLength" : 192,
            "byteOffset" : 15964,
            "target" : 34963
        },
        {
            "buffer" : 0,
            "byteLength" : 1856,
            "byteOffset" : 16156
        }
    ],
    "samplers" : [
        {
            "magFilter" : 9729,
            "minFilter" : 9987
        }
    ],
    "buffers" : [
        {
            "byteLength" : 18012,
            "uri" : "cp_pants_long_001.bin"
        }
    ]
}
