{
    "asset" : {
        "generator" : "Khronos glTF Blender I/O v3.4.50",
        "version" : "2.0"
    },
    "extensionsUsed" : [
        "KHR_materials_specular",
        "KHR_materials_ior"
    ],
    "scene" : 0,
    "scenes" : [
        {
            "name" : "Scene",
            "nodes" : [
                24
            ]
        }
    ],
    "nodes" : [
        {
            "name" : "Bip001 L Finger0",
            "rotation" : [
                0.8770007491111755,
                0.3389197289943695,
                -0.32409605383872986,
                0.10471313446760178
            ],
            "scale" : [
                1.0000001192092896,
                1,
                1
            ],
            "translation" : [
                0.019696135073900223,
                0.012622959911823273,
                -0.04886486381292343
            ]
        },
        {
            "name" : "Bip001 L Finger1",
            "rotation" : [
                0.7058145403862,
                0.03782803937792778,
                0.03779931738972664,
                0.7063753604888916
            ],
            "scale" : [
                1,
                1.0000001192092896,
                1
            ],
            "translation" : [
                0.10346543043851852,
                1.0291114449501038e-07,
                -7.729977369308472e-07
            ]
        },
        {
            "children" : [
                0,
                1
            ],
            "name" : "Bip001 L Hand",
            "rotation" : [
                -0.7365174293518066,
                0.0015666207764297724,
                0.012318388558924198,
                0.6763045787811279
            ],
            "scale" : [
                1.0000001192092896,
                1.0000001192092896,
                1.000000238418579
            ],
            "translation" : [
                0.11594387888908386,
                -7.450580596923828e-09,
                -2.278829924762249e-07
            ]
        },
        {
            "children" : [
                2
            ],
            "name" : "Bip001 L Forearm",
            "rotation" : [
                -3.737694953542814e-08,
                -2.6916902129414666e-07,
                -0.020209847018122673,
                0.9997957944869995
            ],
            "scale" : [
                0.9999999403953552,
                1,
                0.9999999403953552
            ],
            "translation" : [
                0.14284540712833405,
                -2.8405338525772095e-08,
                -2.0960578694939613e-07
            ]
        },
        {
            "children" : [
                3
            ],
            "name" : "Bip001 L UpperArm",
            "rotation" : [
                0.03199803829193115,
                0.29684555530548096,
                0.032048337161540985,
                0.9538509845733643
            ],
            "scale" : [
                1,
                1.0000001192092896,
                1.0000001192092896
            ],
            "translation" : [
                0.10698555409908295,
                -3.213062882423401e-08,
                5.8673322200775146e-08
            ]
        },
        {
            "children" : [
                4
            ],
            "name" : "Bip001 L Clavicle",
            "rotation" : [
                0.6718746423721313,
                -0.05724286288022995,
                0.7367696166038513,
                0.04978211224079132
            ],
            "scale" : [
                1.0000015497207642,
                1,
                1.0000001192092896
            ],
            "translation" : [
                -0.04621348902583122,
                0.01309407688677311,
                0.026540223509073257
            ]
        },
        {
            "name" : "Bip001 R Finger0",
            "rotation" : [
                0.10471315681934357,
                -0.324096143245697,
                0.33891966938972473,
                0.8770007491111755
            ],
            "scale" : [
                1.000000238418579,
                0.9999997615814209,
                1
            ],
            "translation" : [
                0.019696757197380066,
                0.01262237224727869,
                0.048864878714084625
            ]
        },
        {
            "name" : "Bip001 R Finger1",
            "rotation" : [
                0.7063754200935364,
                0.03779927268624306,
                0.03782803937792778,
                0.7058144807815552
            ],
            "scale" : [
                0.9999998807907104,
                1.0000001192092896,
                0.9999998807907104
            ],
            "translation" : [
                0.10346602648496628,
                -5.166511982679367e-07,
                8.009374141693115e-07
            ]
        },
        {
            "children" : [
                6,
                7
            ],
            "name" : "Bip001 R Hand",
            "rotation" : [
                0.7365174293518066,
                -0.0015666811959818006,
                0.01231833454221487,
                0.6763046979904175
            ],
            "scale" : [
                1,
                1.0000001192092896,
                1
            ],
            "translation" : [
                0.11594349890947342,
                -3.91155481338501e-08,
                4.202011041343212e-07
            ]
        },
        {
            "children" : [
                8
            ],
            "name" : "Bip001 R Forearm",
            "rotation" : [
                8.214777125203909e-08,
                8.798974135970639e-07,
                -0.020209794864058495,
                0.9997957944869995
            ],
            "scale" : [
                1,
                1,
                1.0000001192092896
            ],
            "translation" : [
                0.14284509420394897,
                -7.788185030221939e-08,
                4.019821062684059e-07
            ]
        },
        {
            "children" : [
                9
            ],
            "name" : "Bip001 R UpperArm",
            "rotation" : [
                -0.03199806436896324,
                -0.2968454658985138,
                0.032048262655735016,
                0.953851044178009
            ],
            "scale" : [
                1,
                0.9999999403953552,
                1
            ],
            "translation" : [
                0.10698521137237549,
                -7.194466888904572e-08,
                -1.0640360414981842e-07
            ]
        },
        {
            "children" : [
                10
            ],
            "name" : "Bip001 R Clavicle",
            "rotation" : [
                -0.6718743443489075,
                0.05724085867404938,
                0.7367699146270752,
                0.04978374391794205
            ],
            "scale" : [
                1.000004768371582,
                1.000000238418579,
                1.000000238418579
            ],
            "translation" : [
                -0.04621356353163719,
                0.013094225898385048,
                -0.026540126651525497
            ]
        },
        {
            "name" : "Bip001 Head",
            "rotation" : [
                0.7066677808761597,
                -0.02491319179534912,
                -0.02491336315870285,
                0.7066677808761597
            ],
            "scale" : [
                0.9999998211860657,
                1,
                0.9999998211860657
            ],
            "translation" : [
                0.11990762501955032,
                1.8253934968015528e-06,
                -4.932502406518324e-07
            ]
        },
        {
            "children" : [
                5,
                11,
                12
            ],
            "name" : "Bip001 Neck",
            "rotation" : [
                1.2407751270870904e-08,
                -3.8348642306118563e-07,
                0.07496680319309235,
                0.9971860647201538
            ],
            "scale" : [
                1,
                1.0000001192092896,
                1
            ],
            "translation" : [
                0.19894276559352875,
                -0.017876870930194855,
                -4.748632775886108e-08
            ]
        },
        {
            "children" : [
                13
            ],
            "name" : "Bip001 Spine1",
            "rotation" : [
                1.507685865043129e-09,
                1.2119471648475155e-07,
                -0.050622861832380295,
                0.9987178444862366
            ],
            "translation" : [
                0.11140792816877365,
                -0.00010916311293840408,
                5.15791009902955e-09
            ]
        },
        {
            "name" : "Bip001 L Foot",
            "rotation" : [
                0.70745849609375,
                0.04623027145862579,
                0.09030918776988983,
                0.6994351148605347
            ],
            "scale" : [
                0.9999999403953552,
                1.000000238418579,
                0.9999998807907104
            ],
            "translation" : [
                0.13390065729618073,
                -5.940673872828484e-07,
                -1.2847158359363675e-07
            ]
        },
        {
            "children" : [
                15
            ],
            "name" : "Bip001 L Calf",
            "rotation" : [
                2.801643006478116e-08,
                -8.560484587860628e-08,
                -0.0926128700375557,
                0.9957022070884705
            ],
            "translation" : [
                0.16685156524181366,
                3.7834979593753815e-09,
                -8.87666828930378e-10
            ]
        },
        {
            "children" : [
                16
            ],
            "name" : "Bip001 L Thigh",
            "rotation" : [
                -0.006841656286269426,
                -0.9994746446609497,
                -0.003105929121375084,
                0.031527675688266754
            ],
            "scale" : [
                1,
                0.9999999403953552,
                1
            ],
            "translation" : [
                -0.04870704188942909,
                -0.006435576826334,
                0.0799400806427002
            ]
        },
        {
            "name" : "Bip001 R Foot",
            "rotation" : [
                0.6994352340698242,
                0.09030865877866745,
                0.046230848878622055,
                0.7074584364891052
            ],
            "scale" : [
                0.9999999403953552,
                1,
                0.9999998211860657
            ],
            "translation" : [
                0.1339005082845688,
                -6.953487172722816e-07,
                -1.4247052604332566e-07
            ]
        },
        {
            "children" : [
                18
            ],
            "name" : "Bip001 R Calf",
            "rotation" : [
                -3.111475521677676e-08,
                5.538799285886853e-08,
                -0.09261288493871689,
                0.9957022070884705
            ],
            "scale" : [
                0.9999999403953552,
                0.9999998807907104,
                0.9999999403953552
            ],
            "translation" : [
                0.16685155034065247,
                4.8137735575437546e-08,
                -1.2936652638018131e-08
            ]
        },
        {
            "children" : [
                19
            ],
            "name" : "Bip001 R Thigh",
            "rotation" : [
                0.006841741502285004,
                0.9994746446609497,
                -0.0031031626276671886,
                0.0315278023481369
            ],
            "scale" : [
                1,
                1.0000001192092896,
                1
            ],
            "translation" : [
                -0.048707034438848495,
                -0.0064351363107562065,
                -0.07994012534618378
            ]
        },
        {
            "children" : [
                14,
                17,
                20
            ],
            "name" : "Bip001 Spine",
            "rotation" : [
                -2.0721104192489292e-06,
                7.759080062896828e-07,
                0.010847948491573334,
                0.9999411702156067
            ],
            "scale" : [
                0.9999999403953552,
                1.0000001192092896,
                1
            ],
            "translation" : [
                0.04855594038963318,
                0.007490534335374832,
                -8.409266882836164e-08
            ]
        },
        {
            "children" : [
                21
            ],
            "name" : "Bip001 Pelvis",
            "rotation" : [
                0.7071068286895752,
                0.7071068286895752,
                -1.0424337233416736e-06,
                3.090930889015908e-08
            ],
            "scale" : [
                1,
                0.9999999403953552,
                1
            ],
            "translation" : [
                -1.0877521106067434e-11,
                -1.83503934270135e-09,
                -9.753594313800619e-17
            ]
        },
        {
            "mesh" : 0,
            "name" : "cp_up_04_jacket001",
            "skin" : 0
        },
        {
            "children" : [
                23,
                22
            ],
            "name" : "Bip001",
            "rotation" : [
                0,
                -0.7071068286895752,
                0,
                0.7071067094802856
            ],
            "translation" : [
                0,
                0.34064996242523193,
                0.0419808030128479
            ]
        }
    ],
    "materials" : [
        {
            "doubleSided" : true,
            "extensions" : {
                "KHR_materials_specular" : {
                    "specularColorFactor" : [
                        0,
                        0,
                        0
                    ]
                },
                "KHR_materials_ior" : {
                    "ior" : 1.4500000476837158
                }
            },
            "name" : "01 - Default",
            "pbrMetallicRoughness" : {
                "baseColorTexture" : {
                    "index" : 0
                },
                "roughnessFactor" : 0.858578622341156
            }
        },
        {
            "alphaMode" : "BLEND",
            "doubleSided" : true,
            "extensions" : {
                "KHR_materials_specular" : {
                    "specularColorFactor" : [
                        0,
                        0,
                        0
                    ]
                },
                "KHR_materials_ior" : {
                    "ior" : 1.4500000476837158
                }
            },
            "name" : "body",
            "pbrMetallicRoughness" : {
                "baseColorTexture" : {
                    "index" : 1
                },
                "roughnessFactor" : 0.858578622341156
            }
        }
    ],
    "meshes" : [
        {
            "name" : "Mesh.001",
            "primitives" : [
                {
                    "attributes" : {
                        "POSITION" : 0,
                        "TEXCOORD_0" : 1,
                        "NORMAL" : 2,
                        "JOINTS_0" : 3,
                        "WEIGHTS_0" : 4
                    },
                    "indices" : 5,
                    "material" : 0
                },
                {
                    "attributes" : {
                        "POSITION" : 6,
                        "TEXCOORD_0" : 7,
                        "NORMAL" : 8,
                        "JOINTS_0" : 9,
                        "WEIGHTS_0" : 10
                    },
                    "indices" : 11,
                    "material" : 1
                }
            ]
        }
    ],
    "textures" : [
        {
            "sampler" : 0,
            "source" : 0
        },
        {
            "sampler" : 0,
            "source" : 1
        }
    ],
    "images" : [
        {
            "mimeType" : "image/png",
            "name" : "cp_upper_jacket001_001",
            "uri" : "Textures/cp_upper_jacket001_001.png"
        },
        {
            "mimeType" : "image/png",
            "name" : "cp_body_01",
            "uri" : "Textures/cp_body_01.png"
        }
    ],
    "skins" : [
        {
            "inverseBindMatrices" : 12,
            "joints" : [
                22,
                21,
                14,
                13,
                5,
                4,
                3,
                2,
                11,
                10,
                9,
                8,
                17,
                16,
                20,
                19
            ],
            "name" : "Bip001"
        }
    ],
    "accessors" : [
        {
            "bufferView" : 0,
            "componentType" : 5126,
            "count" : 1802,
            "max" : [
                0.3364480137825012,
                0.71910560131073,
                0.17561843991279602
            ],
            "min" : [
                -0.3364480137825012,
                0.32756373286247253,
                -0.0824873223900795
            ],
            "type" : "VEC3"
        },
        {
            "bufferView" : 1,
            "componentType" : 5126,
            "count" : 1802,
            "type" : "VEC2"
        },
        {
            "bufferView" : 2,
            "componentType" : 5126,
            "count" : 1802,
            "type" : "VEC3"
        },
        {
            "bufferView" : 3,
            "componentType" : 5121,
            "count" : 1802,
            "type" : "VEC4"
        },
        {
            "bufferView" : 4,
            "componentType" : 5126,
            "count" : 1802,
            "type" : "VEC4"
        },
        {
            "bufferView" : 5,
            "componentType" : 5123,
            "count" : 2598,
            "type" : "SCALAR"
        },
        {
            "bufferView" : 6,
            "componentType" : 5126,
            "count" : 184,
            "max" : [
                0.33959415555000305,
                0.74028480052948,
                0.08651475608348846
            ],
            "min" : [
                -0.33959415555000305,
                0.45335501432418823,
                -0.03905603289604187
            ],
            "type" : "VEC3"
        },
        {
            "bufferView" : 7,
            "componentType" : 5126,
            "count" : 184,
            "type" : "VEC2"
        },
        {
            "bufferView" : 8,
            "componentType" : 5126,
            "count" : 184,
            "type" : "VEC3"
        },
        {
            "bufferView" : 9,
            "componentType" : 5121,
            "count" : 184,
            "type" : "VEC4"
        },
        {
            "bufferView" : 10,
            "componentType" : 5126,
            "count" : 184,
            "type" : "VEC4"
        },
        {
            "bufferView" : 11,
            "componentType" : 5123,
            "count" : 276,
            "type" : "SCALAR"
        },
        {
            "bufferView" : 12,
            "componentType" : 5126,
            "count" : 16,
            "type" : "MAT4"
        }
    ],
    "bufferViews" : [
        {
            "buffer" : 0,
            "byteLength" : 21624,
            "byteOffset" : 0,
            "target" : 34962
        },
        {
            "buffer" : 0,
            "byteLength" : 14416,
            "byteOffset" : 21624,
            "target" : 34962
        },
        {
            "buffer" : 0,
            "byteLength" : 21624,
            "byteOffset" : 36040,
            "target" : 34962
        },
        {
            "buffer" : 0,
            "byteLength" : 7208,
            "byteOffset" : 57664,
            "target" : 34962
        },
        {
            "buffer" : 0,
            "byteLength" : 28832,
            "byteOffset" : 64872,
            "target" : 34962
        },
        {
            "buffer" : 0,
            "byteLength" : 5196,
            "byteOffset" : 93704,
            "target" : 34963
        },
        {
            "buffer" : 0,
            "byteLength" : 2208,
            "byteOffset" : 98900,
            "target" : 34962
        },
        {
            "buffer" : 0,
            "byteLength" : 1472,
            "byteOffset" : 101108,
            "target" : 34962
        },
        {
            "buffer" : 0,
            "byteLength" : 2208,
            "byteOffset" : 102580,
            "target" : 34962
        },
        {
            "buffer" : 0,
            "byteLength" : 736,
            "byteOffset" : 104788,
            "target" : 34962
        },
        {
            "buffer" : 0,
            "byteLength" : 2944,
            "byteOffset" : 105524,
            "target" : 34962
        },
        {
            "buffer" : 0,
            "byteLength" : 552,
            "byteOffset" : 108468,
            "target" : 34963
        },
        {
            "buffer" : 0,
            "byteLength" : 1024,
            "byteOffset" : 109020
        }
    ],
    "samplers" : [
        {
            "magFilter" : 9729,
            "minFilter" : 9987
        }
    ],
    "buffers" : [
        {
            "byteLength" : 110044,
            "uri" : "cp_upper_jacket001.bin"
        }
    ]
}
